<?xml version="1.0" encoding="iso-8859-1"?>
<!-- Uploaded to: SVG Repo, www.svgrepo.com, Generator: SVG Repo Mixer Tools -->
<svg height="800px" width="800px" version="1.1" id="Capa_1" xmlns="http://www.w3.org/2000/svg" xmlns:xlink="http://www.w3.org/1999/xlink" 
	 viewBox="0 0 51.605 51.605" xml:space="preserve">
<g>
	<g>
		<path style="fill:#010002;" d="M36.73,17.784l-1.729-6.899c-0.345-1.379-0.944-1.945-1.338-1.264
			c-0.393,0.681-1.404,0.311-2.259-0.825L27.233,3.25c-0.408-0.543-1.083-0.885-1.727-0.856c-0.68,0.005-1.316,0.33-1.718,0.878
			L11.954,19.445c-0.7,0.956-0.492,2.297,0.463,2.997c0.383,0.279,0.826,0.414,1.266,0.414c0.66,0,1.313-0.304,1.732-0.878
			l8.609-11.763c0.838-1.146,2.211-1.155,3.065-0.019l0.887,1.179c0.854,1.136,0.928,2.21,0.165,2.399
			c-0.764,0.189-0.387,0.922,0.842,1.637l6.148,3.576C36.36,19.701,37.075,19.163,36.73,17.784z"/>
		<path style="fill:#010002;" d="M8.151,42.965c-1.421,0-2.067-1.035-1.443-2.312l1.388-2.841c0.624-1.277,1.547-1.831,2.062-1.238
			c0.516,0.594,0.997-0.075,1.075-1.495l0.392-7.101c0.078-1.419-0.727-1.812-1.797-0.878l-5.36,4.675
			C3.396,32.71,3.164,33.5,3.949,33.542s0.916,1.11,0.292,2.388l-4.023,8.239c-0.325,0.665-0.284,1.449,0.107,2.077
			c0.393,0.627,1.08,1.009,1.818,1.009h19.516c1.185,0,2.144-0.96,2.144-2.145s-0.96-2.145-2.144-2.145
			C21.659,42.965,8.151,42.965,8.151,42.965z"/>
		<path style="fill:#010002;" d="M41.765,24.467c-0.52-1.064-1.804-1.506-2.868-0.986c-1.065,0.52-1.506,1.804-0.986,2.868
			l6.986,14.303c0.623,1.277-0.023,2.312-1.445,2.312H42.7c-1.421,0-2.324-0.586-2.017-1.31c0.308-0.724-0.505-0.862-1.813-0.31
			l-6.554,2.765c-1.31,0.552-1.31,1.448,0,2l6.554,2.765c1.308,0.552,2.121,0.413,1.813-0.31c-0.308-0.724,0.596-1.31,2.017-1.31
			h6.76c0.74,0,1.428-0.381,1.819-1.009c0.392-0.627,0.433-1.412,0.108-2.077L41.765,24.467z"/>
	</g>
</g>
</svg>